<svg width="222" height="52" viewBox="0 0 222 52" fill="none" xmlns="http://www.w3.org/2000/svg">
<path d="M4.63996 0V33.4797L3.17911 33.4984C2.07587 33.5133 1.0614 34.1126 0.5326 35.0624C0.0355067 35.9539 0.0494557 37.002 0.571911 37.8661C1.13241 38.7936 2.18873 39.3693 3.3427 39.3693L4.63996 39.363V47.4507L0 52H33.6045L38.2445 47.4507V0H4.63996Z" fill="#FFD600"/>
<path d="M27.2273 12.5959C29.6883 12.5959 31.6833 10.6399 31.6833 8.22695C31.6833 5.81403 29.6883 3.85798 27.2273 3.85798C24.7662 3.85798 22.7712 5.81403 22.7712 8.22695C22.7712 10.6399 24.7662 12.5959 27.2273 12.5959Z" fill="black"/>
<path d="M38.2445 23.3008H34.1967C33.077 23.3008 31.9991 22.883 31.1812 22.1321L27.8638 19.0847C27.5278 18.7764 26.9851 18.8585 26.7593 19.2526L23.3976 25.1297C22.9893 25.8446 22.9601 26.7087 23.3215 27.4472L31.7265 44.524C32.3884 45.8804 31.3803 47.4507 29.8459 47.4507C29.047 47.4507 28.3178 47.0032 27.9691 46.297L18.8426 28.3797L17.0977 36.5109C16.858 37.6634 15.8271 38.4927 14.6275 38.5002L3.35791 38.5499C1.67135 38.5574 0.481876 36.9411 1.29219 35.4901C1.67515 34.8038 2.40558 34.3724 3.20321 34.3612L11.4496 34.2543C12.2701 34.2406 12.9726 33.6712 13.1413 32.8842L14.7188 26.1765C14.9369 25.1546 15.3021 24.1686 15.8017 23.2473L19.2725 16.8455C19.521 16.3868 19.1888 15.8322 18.6587 15.8235L14.819 15.7577C13.93 15.7427 13.0994 16.1903 12.6366 16.9363L10.3033 20.6973C9.82139 21.4731 8.80819 21.7491 7.98773 21.3277C7.09499 20.8689 6.77923 19.7686 7.29535 18.9206L9.79476 14.8152C10.9322 12.9416 13.0195 11.8276 15.2412 11.9034L20.1944 12.0737C24.0393 12.2068 27.6926 13.7485 30.4317 16.3967L33.2862 19.1556C33.796 19.648 34.482 19.924 35.1972 19.924H38.2445" fill="black"/>
<path d="M30.5814 48.0637C28.7312 47.7417 27.5671 48.4441 26.9584 49.0434L23.6157 52H28.5651L31.1837 49.6526C31.819 49.0148 31.6656 48.28 30.5814 48.0637Z" fill="black"/>
<path d="M64.0584 29.0593H54.1979L52.4146 40.0833H44.8619L49.2152 12.8873H56.7679L55.0371 23.7033H64.8976L66.6284 12.8873H74.1812L69.8803 40.0833H62.2751L64.0584 29.0593Z" fill="white"/>
<path d="M82.1781 40.6553C79.5207 40.6553 77.3877 39.9793 75.7793 38.6273C74.2058 37.2407 73.419 35.3687 73.419 33.0113C73.419 26.8753 78.087 23.8073 87.4231 23.8073H91.9337L92.0911 22.6633C92.3358 20.9993 92.161 19.7687 91.5666 18.9713C91.0071 18.1393 89.8882 17.7233 88.2098 17.7233C85.5524 17.7233 83.9264 19.006 83.332 21.5713H76.0939C76.7583 18.4167 78.1919 16.0767 80.3948 14.5513C82.6327 13.026 85.36 12.2633 88.577 12.2633C92.5981 12.2633 95.5702 13.1993 97.4934 15.0713C99.4515 16.9087 100.116 19.7167 99.4865 23.4953L98.1752 31.7633C97.6157 35.1953 97.4584 37.9687 97.7032 40.0833H90.4651C90.2903 39.078 90.2379 37.83 90.3078 36.3393C88.3497 39.2167 85.6398 40.6553 82.1781 40.6553ZM84.7481 35.4553C86.3566 35.4553 87.7028 35.022 88.7868 34.1553C89.9057 33.254 90.5875 32.006 90.8323 30.4113L91.1994 28.2793H87.6329C85.2901 28.2793 83.5768 28.5913 82.4928 29.2153C81.4438 29.8047 80.9193 30.81 80.9193 32.2313C80.9193 33.1673 81.2515 33.9473 81.9159 34.5713C82.5802 35.1607 83.5243 35.4553 84.7481 35.4553Z" fill="white"/>
<path d="M120.649 12.2633C123.656 12.2633 126.121 13.3207 128.044 15.4353C129.967 17.5153 130.929 20.3927 130.929 24.0673C130.929 28.9553 129.687 32.942 127.205 36.0273C124.722 39.1127 121.488 40.6553 117.502 40.6553C115.229 40.6553 113.323 40.17 111.785 39.1993C110.246 38.194 109.145 36.946 108.48 35.4553L106.277 49.3393H98.7247L103.13 21.5193C103.55 18.85 103.865 15.9727 104.075 12.8873H111.365C111.365 14.5513 111.295 16.094 111.155 17.5153C113.323 14.014 116.488 12.2633 120.649 12.2633ZM115.718 34.8833C117.991 34.8833 119.774 33.9473 121.068 32.0753C122.397 30.1687 123.061 27.6727 123.061 24.5873C123.061 22.438 122.589 20.7913 121.645 19.6473C120.701 18.5033 119.337 17.9313 117.554 17.9313C115.211 17.9313 113.288 18.902 111.785 20.8433C110.281 22.75 109.529 25.246 109.529 28.3313C109.529 30.4113 110.071 32.0233 111.155 33.1673C112.239 34.3113 113.76 34.8833 115.718 34.8833Z" fill="white"/>
<path d="M137.24 37.0153L130.631 12.8873H138.446L142.275 29.2673L150.772 12.8873H158.43L137.974 49.3393H130.317L137.24 37.0153Z" fill="white"/>
<path d="M169.963 26.6153L159.631 40.0833H151.186L163.512 24.7433L157.165 12.8873H164.666L170.278 24.6393L172.166 12.8873H179.614L177.726 24.6913L187.114 12.8873H195.244L184.282 25.5233L191.415 40.0833H183.443L177.411 26.7193L175.26 40.0833H167.813L169.963 26.6153Z" fill="white"/>
<path d="M200.81 37.0153L194.202 12.8873H202.017L205.846 29.2673L214.342 12.8873H222L201.545 49.3393H193.887L200.81 37.0153Z" fill="white"/>
</svg>
