<svg width="95" height="95" viewBox="0 0 95 95" fill="none" xmlns="http://www.w3.org/2000/svg">
<path d="M26.7188 11.875C25.9314 11.875 25.1763 12.1878 24.6195 12.7445C24.0628 13.3013 23.75 14.0564 23.75 14.8438V80.1562C23.75 80.9436 24.0628 81.6987 24.6195 82.2555C25.1763 82.8122 25.9314 83.125 26.7188 83.125H32.6562C33.4436 83.125 34.1987 82.8122 34.7555 82.2555C35.3122 81.6987 35.625 80.9436 35.625 80.1562V14.8438C35.625 14.0564 35.3122 13.3013 34.7555 12.7445C34.1987 12.1878 33.4436 11.875 32.6562 11.875H26.7188ZM62.3438 11.875C61.5564 11.875 60.8013 12.1878 60.2445 12.7445C59.6878 13.3013 59.375 14.0564 59.375 14.8438V80.1562C59.375 80.9436 59.6878 81.6987 60.2445 82.2555C60.8013 82.8122 61.5564 83.125 62.3438 83.125H68.2812C69.0686 83.125 69.8237 82.8122 70.3805 82.2555C70.9372 81.6987 71.25 80.9436 71.25 80.1562V14.8438C71.25 14.0564 70.9372 13.3013 70.3805 12.7445C69.8237 12.1878 69.0686 11.875 68.2812 11.875H62.3438Z" fill="#FFD600"/>
</svg>
