<svg width="95" height="95" viewBox="0 0 95 95" fill="none" xmlns="http://www.w3.org/2000/svg">
<path d="M24 22.1587C24.0007 20.5633 24.43 18.9974 25.243 17.6246C26.0559 16.2519 27.2227 15.1227 28.6213 14.3551C30.0199 13.5875 31.5991 13.2097 33.1937 13.2612C34.7883 13.3127 36.3397 13.7916 37.6859 14.6478L77.5028 39.9831C78.7669 40.7875 79.8076 41.8978 80.5286 43.2112C81.2496 44.5246 81.6276 45.9987 81.6276 47.497C81.6276 48.9953 81.2496 50.4694 80.5286 51.7828C79.8076 53.0962 78.7669 54.2065 77.5028 55.0109L37.6859 80.3522C36.3393 81.2086 34.7873 81.6875 33.1922 81.7388C31.5971 81.79 30.0175 81.4117 28.6187 80.6434C27.2199 79.8751 26.0532 78.7451 25.2407 77.3715C24.4282 75.9979 23.9997 74.4312 24 72.8353V22.1587Z" fill="black"/>
</svg>
