<svg width="20" height="20" viewBox="0 0 20 20" fill="none" xmlns="http://www.w3.org/2000/svg">
<path d="M11.0222 14.2222C11.0222 14.5035 10.9388 14.7785 10.7825 15.0124C10.6263 15.2462 10.4041 15.4285 10.1443 15.5362C9.88439 15.6438 9.59842 15.672 9.32254 15.6171C9.04666 15.5622 8.79324 15.4268 8.59434 15.2279C8.39544 15.029 8.25998 14.7756 8.20511 14.4997C8.15023 14.2238 8.1784 13.9378 8.28604 13.678C8.39369 13.4181 8.57598 13.196 8.80986 13.0397C9.04374 12.8834 9.31871 12.8 9.6 12.8C9.9772 12.8 10.3389 12.9498 10.6057 13.2166C10.8724 13.4833 11.0222 13.845 11.0222 14.2222ZM19.2 9.6C19.2 11.4987 18.637 13.3548 17.5821 14.9335C16.5272 16.5122 15.0279 17.7426 13.2738 18.4692C11.5196 19.1958 9.58935 19.386 7.72714 19.0155C5.86492 18.6451 4.15436 17.7308 2.81178 16.3882C1.4692 15.0456 0.554884 13.3351 0.184466 11.4729C-0.185952 9.61065 0.00415955 7.68041 0.730761 5.92624C1.45736 4.17207 2.68782 2.67275 4.26653 1.61789C5.84524 0.56303 7.7013 0 9.6 0C12.1452 0.00282331 14.5854 1.01516 16.3851 2.81489C18.1848 4.61463 19.1972 7.05479 19.2 9.6ZM17.0667 9.6C17.0667 8.12323 16.6288 6.67963 15.8083 5.45174C14.9879 4.22385 13.8217 3.26683 12.4574 2.7017C11.093 2.13656 9.59172 1.9887 8.14333 2.2768C6.69494 2.56491 5.3645 3.27604 4.32027 4.32027C3.27604 5.3645 2.56491 6.69493 2.27681 8.14332C1.9887 9.59172 2.13657 11.093 2.7017 12.4574C3.26684 13.8217 4.22386 14.9879 5.45175 15.8083C6.67963 16.6288 8.12324 17.0667 9.6 17.0667C11.5796 17.0645 13.4776 16.2772 14.8774 14.8774C16.2772 13.4776 17.0646 11.5796 17.0667 9.6ZM9.6 3.91111C7.44356 3.91111 5.68889 5.50578 5.68889 7.46667V7.82222C5.68889 8.10512 5.80127 8.37643 6.00131 8.57647C6.20135 8.77651 6.47266 8.88889 6.75556 8.88889C7.03846 8.88889 7.30977 8.77651 7.50981 8.57647C7.70984 8.37643 7.82223 8.10512 7.82223 7.82222V7.46667C7.82223 6.68267 8.62222 6.04444 9.6 6.04444C10.5778 6.04444 11.3778 6.68267 11.3778 7.46667C11.3778 8.25067 10.5778 8.88889 9.6 8.88889C9.31711 8.88889 9.04579 9.00127 8.84576 9.20131C8.64572 9.40135 8.53334 9.67266 8.53334 9.95555V10.6667C8.5327 10.9302 8.62964 11.1846 8.80547 11.3809C8.98131 11.5772 9.22358 11.7015 9.48559 11.7298C9.7476 11.758 10.0108 11.6883 10.2245 11.534C10.4381 11.3797 10.5871 11.1518 10.6427 10.8942C12.2942 10.4782 13.5111 9.09955 13.5111 7.46667C13.5111 5.50578 11.7564 3.91111 9.6 3.91111Z" fill="white"/>
</svg>
