<svg width="24" height="24" viewBox="0 0 24 24" fill="none" xmlns="http://www.w3.org/2000/svg">
<path fill-rule="evenodd" clip-rule="evenodd" d="M18.7071 7.29289C18.3166 6.90237 17.6834 6.90237 17.2929 7.29289C16.9024 7.68342 16.9024 8.31658 17.2929 8.70711L19.5858 11L9 11C8.44772 11 8 11.4477 8 12C8 12.5523 8.44772 13 9 13L19.5858 13L17.2929 15.2929C16.9024 15.6834 16.9024 16.3166 17.2929 16.7071C17.6834 17.0976 18.3166 17.0976 18.7071 16.7071L22.7071 12.7071C23.0976 12.3166 23.0976 11.6834 22.7071 11.2929L18.7071 7.29289Z" fill="#CBCBCB"/>
<path fill-rule="evenodd" clip-rule="evenodd" d="M15 2C15 2.55229 14.5523 3 14 3L4.69231 3C4.61031 3 4.45525 3.04139 4.29123 3.25676L4.29123 3.25677C4.12291 3.47777 4 3.82295 4 4.22222L4 19.7778C4 20.177 4.1229 20.5222 4.29125 20.7433C4.45525 20.9586 4.6103 21 4.69231 21H14C14.5523 21 15 21.4477 15 22C15 22.5523 14.5523 23 14 23H4.69231C3.87671 23 3.17088 22.5732 2.7001 21.955C2.23367 21.3425 2 20.5572 2 19.7778L2 4.22222C2 3.44276 2.23366 2.65747 2.70012 2.045C3.17089 1.42685 3.8767 1 4.69231 1L14 1C14.5523 1 15 1.44772 15 2Z" fill="#CBCBCB"/>
</svg>
